# xmcd
#
# Track frame offsets:
#       150
#       18910
#       41546
#       64414
#       88838
#       100036
#       119000
#       144197
#       179190
#       195717
#       219972
#       255184
#       284815
#
# Disc length: 4237 seconds
#
# Revision: 0
# Processed by: cddbd v1.5.2PL0 Copyright (c) Steve Scherf et al.
# Submitted via: CD-DA_X-Tractor v0.23
#
DISCID=c1108b0d
DTITLE=Black Cat Bone - The early years CD2
DYEAR=2003
DGENRE=Blues Rock
TTITLE0=Am Arsch der Welt
TTITLE1=Warom hot mir koiner gsait
TTITLE2=Mir ka koiner helfa
TTITLE3=Mal wieder nicht dabei
TTITLE4=Intro (Slow Blues)
TTITLE5=Hideaway
TTITLE6=No koi Hektik
TTITLE7=Rockstar
TTITLE8=I ain't got you
TTITLE9=Weil's Business so beschiss'n is
TTITLE10=Egon
TTITLE11=D'r Dampf isch raus
TTITLE12=Slide Rider
EXTD=
EXTT0=
EXTT1=
EXTT2=
EXTT3=
EXTT4=
EXTT5=
EXTT6=
EXTT7=
EXTT8=
EXTT9=
EXTT10=
EXTT11=
EXTT12=
PLAYORDER=
